<mxfile host="app.diagrams.net" modified="2023-12-19T06:44:32.220Z" agent="Mozilla/5.0 (Windows NT 10.0; Win64; x64) AppleWebKit/537.36 (KHTML, like Gecko) Chrome/120.0.0.0 Safari/537.36 Edg/120.0.0.0" etag="EkQIK2mFnucng0jypUYr" version="22.1.11" type="github">
  <diagram name="Page-1" id="dCJvhaRmcNz_UA6fJpxg">
    <mxGraphModel dx="2009" dy="875" grid="0" gridSize="10" guides="1" tooltips="1" connect="1" arrows="1" fold="1" page="1" pageScale="1" pageWidth="827" pageHeight="1169" background="#FFFFFF" math="0" shadow="0">
      <root>
        <mxCell id="0" />
        <mxCell id="1" parent="0" />
        <mxCell id="9Sx_1llRjn7t0OkJl_CT-1" value="" style="line;strokeWidth=1;direction=south;html=1;strokeColor=#9673a6;fillColor=#e1d5e7;dashed=1;labelBackgroundColor=none;" vertex="1" parent="1">
          <mxGeometry x="690" y="176" width="10" height="291" as="geometry" />
        </mxCell>
        <mxCell id="9Sx_1llRjn7t0OkJl_CT-3" value="&lt;u&gt;:系統管理員&lt;/u&gt;" style="shape=umlActor;verticalLabelPosition=bottom;verticalAlign=top;html=1;strokeColor=#9673a6;fillColor=#e1d5e7;labelBackgroundColor=none;" vertex="1" parent="1">
          <mxGeometry x="55" y="88" width="30" height="52" as="geometry" />
        </mxCell>
        <mxCell id="9Sx_1llRjn7t0OkJl_CT-4" value="&lt;u&gt;登錄&lt;/u&gt;" style="rounded=0;whiteSpace=wrap;html=1;strokeColor=#9673a6;fillColor=#e1d5e7;labelBackgroundColor=none;" vertex="1" parent="1">
          <mxGeometry x="164" y="120" width="84" height="37" as="geometry" />
        </mxCell>
        <mxCell id="9Sx_1llRjn7t0OkJl_CT-5" value="&lt;u&gt;商家管理&lt;br&gt;介面&lt;/u&gt;" style="rounded=0;whiteSpace=wrap;html=1;strokeColor=#9673a6;fillColor=#e1d5e7;labelBackgroundColor=none;" vertex="1" parent="1">
          <mxGeometry x="490" y="120" width="84" height="37" as="geometry" />
        </mxCell>
        <mxCell id="9Sx_1llRjn7t0OkJl_CT-6" value="&lt;u&gt;管理介面&lt;/u&gt;" style="rounded=0;whiteSpace=wrap;html=1;strokeColor=#9673a6;fillColor=#e1d5e7;labelBackgroundColor=none;" vertex="1" parent="1">
          <mxGeometry x="327" y="120" width="84" height="37" as="geometry" />
        </mxCell>
        <mxCell id="9Sx_1llRjn7t0OkJl_CT-7" value="" style="line;strokeWidth=1;direction=south;html=1;strokeColor=#9673a6;fillColor=#e1d5e7;dashed=1;labelBackgroundColor=none;" vertex="1" parent="1">
          <mxGeometry x="65" y="176" width="10" height="291" as="geometry" />
        </mxCell>
        <mxCell id="9Sx_1llRjn7t0OkJl_CT-8" value="" style="line;strokeWidth=1;direction=south;html=1;strokeColor=#9673a6;fillColor=#e1d5e7;dashed=1;labelBackgroundColor=none;" vertex="1" parent="1">
          <mxGeometry x="364" y="176" width="10" height="291" as="geometry" />
        </mxCell>
        <mxCell id="9Sx_1llRjn7t0OkJl_CT-9" value="" style="line;strokeWidth=1;direction=south;html=1;strokeColor=#9673a6;fillColor=#e1d5e7;dashed=1;labelBackgroundColor=none;" vertex="1" parent="1">
          <mxGeometry x="201" y="176" width="10" height="291" as="geometry" />
        </mxCell>
        <mxCell id="9Sx_1llRjn7t0OkJl_CT-10" value="" style="line;strokeWidth=1;direction=south;html=1;strokeColor=#9673a6;fillColor=#e1d5e7;dashed=1;labelBackgroundColor=none;" vertex="1" parent="1">
          <mxGeometry x="527" y="176" width="10" height="291" as="geometry" />
        </mxCell>
        <mxCell id="9Sx_1llRjn7t0OkJl_CT-11" value="" style="edgeStyle=orthogonalEdgeStyle;rounded=0;orthogonalLoop=1;jettySize=auto;html=1;curved=0;strokeColor=#9673a6;labelBackgroundColor=none;fontColor=default;fillColor=#e1d5e7;" edge="1" parent="1">
          <mxGeometry relative="1" as="geometry">
            <mxPoint x="75" y="196" as="sourcePoint" />
            <mxPoint x="201" y="196" as="targetPoint" />
          </mxGeometry>
        </mxCell>
        <mxCell id="9Sx_1llRjn7t0OkJl_CT-12" value="" style="html=1;points=[[0,0,0,0,5],[0,1,0,0,-5],[1,0,0,0,5],[1,1,0,0,-5]];perimeter=orthogonalPerimeter;outlineConnect=0;targetShapes=umlLifeline;portConstraint=eastwest;newEdgeStyle={&quot;curved&quot;:0,&quot;rounded&quot;:0};strokeColor=#9673a6;fillColor=#e1d5e7;labelBackgroundColor=none;" vertex="1" parent="1">
          <mxGeometry x="65" y="176" width="10" height="32" as="geometry" />
        </mxCell>
        <mxCell id="9Sx_1llRjn7t0OkJl_CT-13" value="" style="html=1;points=[[0,0,0,0,5],[0,1,0,0,-5],[1,0,0,0,5],[1,1,0,0,-5]];perimeter=orthogonalPerimeter;outlineConnect=0;targetShapes=umlLifeline;portConstraint=eastwest;newEdgeStyle={&quot;curved&quot;:0,&quot;rounded&quot;:0};strokeColor=#9673a6;fillColor=#e1d5e7;labelBackgroundColor=none;" vertex="1" parent="1">
          <mxGeometry x="201" y="196" width="10" height="73" as="geometry" />
        </mxCell>
        <mxCell id="9Sx_1llRjn7t0OkJl_CT-14" value="1:註冊" style="text;html=1;align=center;verticalAlign=middle;resizable=0;points=[];autosize=1;labelBackgroundColor=none;" vertex="1" parent="1">
          <mxGeometry x="112" y="170" width="52" height="26" as="geometry" />
        </mxCell>
        <mxCell id="9Sx_1llRjn7t0OkJl_CT-15" value="" style="html=1;points=[[0,0,0,0,5],[0,1,0,0,-5],[1,0,0,0,5],[1,1,0,0,-5]];perimeter=orthogonalPerimeter;outlineConnect=0;targetShapes=umlLifeline;portConstraint=eastwest;newEdgeStyle={&quot;curved&quot;:0,&quot;rounded&quot;:0};strokeColor=#9673a6;fillColor=#e1d5e7;labelBackgroundColor=none;" vertex="1" parent="1">
          <mxGeometry x="364" y="219" width="10" height="64" as="geometry" />
        </mxCell>
        <mxCell id="9Sx_1llRjn7t0OkJl_CT-16" value="" style="edgeStyle=orthogonalEdgeStyle;rounded=0;orthogonalLoop=1;jettySize=auto;html=1;curved=0;strokeColor=#9673a6;labelBackgroundColor=none;fontColor=default;fillColor=#e1d5e7;" edge="1" parent="1">
          <mxGeometry relative="1" as="geometry">
            <mxPoint x="212" y="218" as="sourcePoint" />
            <mxPoint x="364" y="218" as="targetPoint" />
          </mxGeometry>
        </mxCell>
        <mxCell id="9Sx_1llRjn7t0OkJl_CT-17" value="2:身分驗證" style="text;html=1;align=center;verticalAlign=middle;resizable=0;points=[];autosize=1;labelBackgroundColor=none;" vertex="1" parent="1">
          <mxGeometry x="250" y="196" width="76" height="26" as="geometry" />
        </mxCell>
        <mxCell id="9Sx_1llRjn7t0OkJl_CT-18" value="" style="html=1;points=[[0,0,0,0,5],[0,1,0,0,-5],[1,0,0,0,5],[1,1,0,0,-5]];perimeter=orthogonalPerimeter;outlineConnect=0;targetShapes=umlLifeline;portConstraint=eastwest;newEdgeStyle={&quot;curved&quot;:0,&quot;rounded&quot;:0};strokeColor=#9673a6;fillColor=#e1d5e7;labelBackgroundColor=none;" vertex="1" parent="1">
          <mxGeometry x="526" y="264" width="10" height="19" as="geometry" />
        </mxCell>
        <mxCell id="9Sx_1llRjn7t0OkJl_CT-19" value="" style="edgeStyle=orthogonalEdgeStyle;rounded=0;orthogonalLoop=1;jettySize=auto;html=1;curved=0;strokeColor=#9673a6;labelBackgroundColor=none;fontColor=default;fillColor=#e1d5e7;" edge="1" parent="1">
          <mxGeometry relative="1" as="geometry">
            <mxPoint x="374" y="265" as="sourcePoint" />
            <mxPoint x="526" y="265" as="targetPoint" />
          </mxGeometry>
        </mxCell>
        <mxCell id="9Sx_1llRjn7t0OkJl_CT-20" value="4:更新商家信息" style="text;html=1;align=center;verticalAlign=middle;resizable=0;points=[];autosize=1;labelBackgroundColor=none;" vertex="1" parent="1">
          <mxGeometry x="400" y="243" width="100" height="26" as="geometry" />
        </mxCell>
        <mxCell id="9Sx_1llRjn7t0OkJl_CT-21" value="" style="html=1;points=[[0,0,0,0,5],[0,1,0,0,-5],[1,0,0,0,5],[1,1,0,0,-5]];perimeter=orthogonalPerimeter;outlineConnect=0;targetShapes=umlLifeline;portConstraint=eastwest;newEdgeStyle={&quot;curved&quot;:0,&quot;rounded&quot;:0};strokeColor=#9673a6;fillColor=#e1d5e7;labelBackgroundColor=none;" vertex="1" parent="1">
          <mxGeometry x="527" y="320" width="10" height="27" as="geometry" />
        </mxCell>
        <mxCell id="9Sx_1llRjn7t0OkJl_CT-22" value="" style="rounded=0;orthogonalLoop=1;jettySize=auto;html=1;strokeColor=#9673a6;labelBackgroundColor=none;fontColor=default;entryX=0.763;entryY=0.14;entryDx=0;entryDy=0;entryPerimeter=0;dashed=1;fillColor=#e1d5e7;" edge="1" parent="1" source="9Sx_1llRjn7t0OkJl_CT-49">
          <mxGeometry relative="1" as="geometry">
            <mxPoint x="367.4" y="419.41" as="sourcePoint" />
            <mxPoint x="75.00000000000003" y="418.004" as="targetPoint" />
          </mxGeometry>
        </mxCell>
        <mxCell id="9Sx_1llRjn7t0OkJl_CT-23" value="" style="html=1;points=[[0,0,0,0,5],[0,1,0,0,-5],[1,0,0,0,5],[1,1,0,0,-5]];perimeter=orthogonalPerimeter;outlineConnect=0;targetShapes=umlLifeline;portConstraint=eastwest;newEdgeStyle={&quot;curved&quot;:0,&quot;rounded&quot;:0};strokeColor=#9673a6;fillColor=#e1d5e7;labelBackgroundColor=none;" vertex="1" parent="1">
          <mxGeometry x="690" y="320" width="10" height="27" as="geometry" />
        </mxCell>
        <mxCell id="9Sx_1llRjn7t0OkJl_CT-24" value="7:退出" style="text;html=1;align=center;verticalAlign=middle;resizable=0;points=[];autosize=1;labelBackgroundColor=none;" vertex="1" parent="1">
          <mxGeometry x="295" y="396" width="52" height="26" as="geometry" />
        </mxCell>
        <mxCell id="9Sx_1llRjn7t0OkJl_CT-25" value="5:提交信息" style="text;html=1;align=center;verticalAlign=middle;resizable=0;points=[];autosize=1;labelBackgroundColor=none;" vertex="1" parent="1">
          <mxGeometry x="579" y="298" width="76" height="26" as="geometry" />
        </mxCell>
        <mxCell id="9Sx_1llRjn7t0OkJl_CT-26" value="" style="shape=table;startSize=0;container=1;collapsible=0;childLayout=tableLayout;fontSize=16;strokeColor=#9673a6;fillColor=default;swimlaneFillColor=#B5739D;gradientDirection=south;rounded=1;gradientColor=#FFFFFF;swimlaneLine=1;shadow=1;strokeWidth=2;" vertex="1" parent="1">
          <mxGeometry x="10" y="40" width="755" height="29" as="geometry" />
        </mxCell>
        <mxCell id="9Sx_1llRjn7t0OkJl_CT-27" style="shape=tableRow;horizontal=0;startSize=0;swimlaneHead=0;swimlaneBody=0;strokeColor=#9673a6;top=0;left=0;bottom=0;right=0;collapsible=0;dropTarget=0;fillColor=#e1d5e7;points=[[0,0.5],[1,0.5]];portConstraint=eastwest;fontSize=16;swimlaneFillColor=#B5739D;swimlaneLine=1;shadow=1;strokeWidth=2;" vertex="1" parent="9Sx_1llRjn7t0OkJl_CT-26">
          <mxGeometry width="755" height="29" as="geometry" />
        </mxCell>
        <mxCell id="9Sx_1llRjn7t0OkJl_CT-28" value="&lt;font style=&quot;font-size: 12px;&quot;&gt;:系統管理員&lt;/font&gt;" style="shape=partialRectangle;html=1;whiteSpace=wrap;connectable=0;strokeColor=#9673a6;overflow=hidden;fillColor=#e1d5e7;top=0;left=0;bottom=0;right=0;pointerEvents=1;fontSize=16;gradientColor=#FFFFFF;swimlaneFillColor=#B5739D;swimlaneLine=1;shadow=1;strokeWidth=2;" vertex="1" parent="9Sx_1llRjn7t0OkJl_CT-27">
          <mxGeometry width="130" height="29" as="geometry">
            <mxRectangle width="130" height="29" as="alternateBounds" />
          </mxGeometry>
        </mxCell>
        <mxCell id="9Sx_1llRjn7t0OkJl_CT-29" value="&lt;font style=&quot;font-size: 12px;&quot;&gt;登錄&lt;/font&gt;" style="shape=partialRectangle;html=1;whiteSpace=wrap;connectable=0;strokeColor=#9673a6;overflow=hidden;fillColor=#e1d5e7;top=0;left=0;bottom=0;right=0;pointerEvents=1;fontSize=16;gradientColor=#FFFFFF;swimlaneFillColor=#B5739D;swimlaneLine=1;shadow=1;strokeWidth=2;" vertex="1" parent="9Sx_1llRjn7t0OkJl_CT-27">
          <mxGeometry x="130" width="133" height="29" as="geometry">
            <mxRectangle width="133" height="29" as="alternateBounds" />
          </mxGeometry>
        </mxCell>
        <mxCell id="9Sx_1llRjn7t0OkJl_CT-30" value="&lt;font style=&quot;font-size: 12px;&quot;&gt;管理介面&lt;/font&gt;" style="shape=partialRectangle;html=1;whiteSpace=wrap;connectable=0;strokeColor=#9673a6;overflow=hidden;fillColor=#e1d5e7;top=0;left=0;bottom=0;right=0;pointerEvents=1;fontSize=16;gradientColor=#FFFFFF;swimlaneFillColor=#B5739D;swimlaneLine=1;shadow=1;strokeWidth=2;" vertex="1" parent="9Sx_1llRjn7t0OkJl_CT-27">
          <mxGeometry x="263" width="180" height="29" as="geometry">
            <mxRectangle width="180" height="29" as="alternateBounds" />
          </mxGeometry>
        </mxCell>
        <mxCell id="9Sx_1llRjn7t0OkJl_CT-31" value="&lt;span style=&quot;font-size: 12px;&quot;&gt;商家管理介面&lt;/span&gt;" style="shape=partialRectangle;html=1;whiteSpace=wrap;connectable=0;strokeColor=#9673a6;overflow=hidden;fillColor=#e1d5e7;top=0;left=0;bottom=0;right=0;pointerEvents=1;fontSize=16;shadow=1;gradientColor=#FFFFFF;swimlaneFillColor=#B5739D;swimlaneLine=1;strokeWidth=2;" vertex="1" parent="9Sx_1llRjn7t0OkJl_CT-27">
          <mxGeometry x="443" width="155" height="29" as="geometry">
            <mxRectangle width="155" height="29" as="alternateBounds" />
          </mxGeometry>
        </mxCell>
        <mxCell id="9Sx_1llRjn7t0OkJl_CT-32" value="&lt;font style=&quot;font-size: 12px;&quot;&gt;商家數據庫&lt;/font&gt;" style="shape=partialRectangle;html=1;whiteSpace=wrap;connectable=0;strokeColor=#9673a6;overflow=hidden;fillColor=#e1d5e7;top=0;left=0;bottom=0;right=0;pointerEvents=1;fontSize=16;shadow=1;gradientColor=#FFFFFF;swimlaneFillColor=#B5739D;swimlaneLine=1;strokeWidth=2;" vertex="1" parent="9Sx_1llRjn7t0OkJl_CT-27">
          <mxGeometry x="598" width="157" height="29" as="geometry">
            <mxRectangle width="157" height="29" as="alternateBounds" />
          </mxGeometry>
        </mxCell>
        <mxCell id="9Sx_1llRjn7t0OkJl_CT-33" value="&lt;u&gt;商家數據庫&lt;/u&gt;" style="rounded=0;whiteSpace=wrap;html=1;strokeColor=#9673a6;fillColor=#e1d5e7;labelBackgroundColor=none;" vertex="1" parent="1">
          <mxGeometry x="653" y="120" width="84" height="37" as="geometry" />
        </mxCell>
        <mxCell id="9Sx_1llRjn7t0OkJl_CT-40" value="" style="html=1;points=[[0,0,0,0,5],[0,1,0,0,-5],[1,0,0,0,5],[1,1,0,0,-5]];perimeter=orthogonalPerimeter;outlineConnect=0;targetShapes=umlLifeline;portConstraint=eastwest;newEdgeStyle={&quot;curved&quot;:0,&quot;rounded&quot;:0};strokeColor=#9673a6;fillColor=#e1d5e7;labelBackgroundColor=none;" vertex="1" parent="1">
          <mxGeometry x="689" y="168" width="11" height="18" as="geometry" />
        </mxCell>
        <mxCell id="9Sx_1llRjn7t0OkJl_CT-41" value="" style="rounded=0;orthogonalLoop=1;jettySize=auto;html=1;strokeColor=#9673a6;labelBackgroundColor=none;fontColor=default;entryX=0.763;entryY=0.14;entryDx=0;entryDy=0;entryPerimeter=0;dashed=1;fillColor=#e1d5e7;" edge="1" parent="1">
          <mxGeometry relative="1" as="geometry">
            <mxPoint x="363" y="250.20000000000005" as="sourcePoint" />
            <mxPoint x="70.60000000000002" y="248.79399999999998" as="targetPoint" />
          </mxGeometry>
        </mxCell>
        <mxCell id="9Sx_1llRjn7t0OkJl_CT-42" value="3:驗證結果" style="text;html=1;align=center;verticalAlign=middle;resizable=0;points=[];autosize=1;labelBackgroundColor=none;" vertex="1" parent="1">
          <mxGeometry x="168" y="228" width="76" height="26" as="geometry" />
        </mxCell>
        <mxCell id="9Sx_1llRjn7t0OkJl_CT-43" value="" style="rounded=0;orthogonalLoop=1;jettySize=auto;html=1;strokeColor=#9673a6;dashed=1;labelBackgroundColor=none;fontColor=default;entryX=1.043;entryY=0.011;entryDx=0;entryDy=0;entryPerimeter=0;fillColor=#e1d5e7;" edge="1" parent="1">
          <mxGeometry relative="1" as="geometry">
            <mxPoint x="537" y="320" as="sourcePoint" />
            <mxPoint x="691.5000000000001" y="319.557" as="targetPoint" />
          </mxGeometry>
        </mxCell>
        <mxCell id="9Sx_1llRjn7t0OkJl_CT-44" value="" style="html=1;points=[[0,0,0,0,5],[0,1,0,0,-5],[1,0,0,0,5],[1,1,0,0,-5]];perimeter=orthogonalPerimeter;outlineConnect=0;targetShapes=umlLifeline;portConstraint=eastwest;newEdgeStyle={&quot;curved&quot;:0,&quot;rounded&quot;:0};strokeColor=#9673a6;fillColor=#e1d5e7;labelBackgroundColor=none;" vertex="1" parent="1">
          <mxGeometry x="527" y="369" width="10" height="27" as="geometry" />
        </mxCell>
        <mxCell id="9Sx_1llRjn7t0OkJl_CT-45" value="" style="html=1;points=[[0,0,0,0,5],[0,1,0,0,-5],[1,0,0,0,5],[1,1,0,0,-5]];perimeter=orthogonalPerimeter;outlineConnect=0;targetShapes=umlLifeline;portConstraint=eastwest;newEdgeStyle={&quot;curved&quot;:0,&quot;rounded&quot;:0};strokeColor=#9673a6;fillColor=#e1d5e7;labelBackgroundColor=none;" vertex="1" parent="1">
          <mxGeometry x="690" y="369" width="10" height="27" as="geometry" />
        </mxCell>
        <mxCell id="9Sx_1llRjn7t0OkJl_CT-46" value="6:提交結果顯示" style="text;html=1;align=center;verticalAlign=middle;resizable=0;points=[];autosize=1;labelBackgroundColor=none;" vertex="1" parent="1">
          <mxGeometry x="567" y="347" width="100" height="26" as="geometry" />
        </mxCell>
        <mxCell id="9Sx_1llRjn7t0OkJl_CT-47" value="" style="rounded=0;orthogonalLoop=1;jettySize=auto;html=1;strokeColor=#9673a6;dashed=1;labelBackgroundColor=none;fontColor=default;entryX=1.043;entryY=0.011;entryDx=0;entryDy=0;entryPerimeter=0;startArrow=classic;startFill=1;endArrow=none;endFill=0;fillColor=#e1d5e7;" edge="1" parent="1">
          <mxGeometry relative="1" as="geometry">
            <mxPoint x="537" y="369" as="sourcePoint" />
            <mxPoint x="691.5000000000001" y="368.557" as="targetPoint" />
          </mxGeometry>
        </mxCell>
        <mxCell id="9Sx_1llRjn7t0OkJl_CT-49" value="" style="html=1;points=[[0,0,0,0,5],[0,1,0,0,-5],[1,0,0,0,5],[1,1,0,0,-5]];perimeter=orthogonalPerimeter;outlineConnect=0;targetShapes=umlLifeline;portConstraint=eastwest;newEdgeStyle={&quot;curved&quot;:0,&quot;rounded&quot;:0};strokeColor=#9673a6;fillColor=#e1d5e7;labelBackgroundColor=none;" vertex="1" parent="1">
          <mxGeometry x="527" y="418" width="10" height="27" as="geometry" />
        </mxCell>
        <mxCell id="9Sx_1llRjn7t0OkJl_CT-50" value="" style="html=1;points=[[0,0,0,0,5],[0,1,0,0,-5],[1,0,0,0,5],[1,1,0,0,-5]];perimeter=orthogonalPerimeter;outlineConnect=0;targetShapes=umlLifeline;portConstraint=eastwest;newEdgeStyle={&quot;curved&quot;:0,&quot;rounded&quot;:0};strokeColor=#9673a6;fillColor=#e1d5e7;labelBackgroundColor=none;" vertex="1" parent="1">
          <mxGeometry x="65" y="418" width="10" height="27" as="geometry" />
        </mxCell>
      </root>
    </mxGraphModel>
  </diagram>
</mxfile>
